<?xml version="1.0" encoding="utf-8"?>
<!-- Generator: Adobe Illustrator 23.1.0, SVG Export Plug-In . SVG Version: 6.00 Build 0)  -->
<svg version="1.1" xmlns="http://www.w3.org/2000/svg" xmlns:xlink="http://www.w3.org/1999/xlink" x="0px" y="0px"
	 viewBox="0 0 565.8 841.9" style="enable-background:new 0 0 565.8 841.9;" xml:space="preserve">
<style type="text/css">
	.st0{fill:#FFFFFF;}
	.st1{fill:#304BA0;}
	.st2{fill:none;}
	.st3{fill:none;stroke:#FFFFFF;stroke-width:10;stroke-miterlimit:10;}
	.st4{fill:none;stroke:#FFFFFF;stroke-width:9.72;stroke-miterlimit:10;}
	.st5{fill:#304BA0;stroke:#304BA0;stroke-miterlimit:10;}
	.st6{fill:none;stroke:#FFFFFF;stroke-width:5.1431;stroke-miterlimit:10;}
	.st7{fill:#FFFFFF;stroke:#FFFFFF;stroke-width:1.2858;stroke-miterlimit:10;}
	.st8{fill:none;stroke:#FFFFFF;stroke-width:5;stroke-miterlimit:10;}
	.st9{fill:none;stroke:#FFFFFF;stroke-width:4;stroke-miterlimit:10;}
	.st10{fill:none;stroke:#FFFFFF;stroke-width:6;stroke-miterlimit:10;}
</style>
<g id="Layer_2">
</g>
<g id="Layer_3">
	<g>
		<g>
			<g>
				<polygon points="-1061.1,454.6 -1204.1,406.4 -917.1,408.7 				"/>
				<polygon points="-1060.4,371 -1205.1,406.4 -916.5,408.7 				"/>
				<line x1="-1061.1" y1="449" x2="-1060.6" y2="651"/>
				<line x1="-1061.1" y1="447.9" x2="-1060.6" y2="650"/>
				<g>
					<line x1="-1061.1" y1="449" x2="-1060.6" y2="651"/>
					<g>
						<path d="M-1063.9,449c0,1.8,0,3.6,0,5.4c0,4.9,0,9.8,0,14.7c0,7.2,0,14.4,0.1,21.7c0,8.8,0,17.7,0.1,26.5
							c0,9.7,0,19.4,0.1,29.1c0,9.8,0,19.6,0.1,29.4c0,9.1,0,18.2,0.1,27.4c0,7.7,0,15.4,0.1,23c0,5.6,0,11.1,0,16.7
							c0,2.6,0,5.3,0,7.9c0,0.1,0,0.2,0,0.3c0,3.6,5.6,3.6,5.6,0c0-1.8,0-3.6,0-5.4c0-4.9,0-9.8,0-14.7c0-7.2,0-14.4-0.1-21.7
							c0-8.8,0-17.7-0.1-26.5c0-9.7,0-19.4-0.1-29.1c0-9.8,0-19.6-0.1-29.4c0-9.1,0-18.2-0.1-27.4c0-7.7,0-15.4-0.1-23
							c0-5.6,0-11.1,0-16.7c0-2.6,0-5.3,0-7.9c0-0.1,0-0.2,0-0.3C-1058.3,445.4-1063.9,445.4-1063.9,449L-1063.9,449z"/>
					</g>
				</g>
				<g>
					<line x1="-917.5" y1="410.1" x2="-1061" y2="651.2"/>
					<g>
						<path d="M-919.9,408.7c-1.3,2.2-2.6,4.3-3.9,6.5c-3.5,5.8-7,11.7-10.4,17.5c-5.2,8.7-10.3,17.3-15.5,26
							c-6.3,10.6-12.6,21.1-18.9,31.7c-6.9,11.5-13.7,23.1-20.6,34.6c-6.9,11.7-13.9,23.4-20.8,35c-6.5,10.9-13,21.8-19.4,32.7
							c-5.5,9.2-10.9,18.3-16.4,27.5c-3.9,6.6-7.9,13.3-11.8,19.9c-1.9,3.1-3.8,6.2-5.6,9.4c-0.1,0.1-0.2,0.3-0.2,0.4
							c-1.8,3.1,3,5.9,4.8,2.8c1.3-2.2,2.6-4.3,3.9-6.5c3.5-5.8,7-11.7,10.4-17.5c5.2-8.7,10.3-17.3,15.5-26
							c6.3-10.6,12.6-21.1,18.9-31.7c6.9-11.5,13.7-23.1,20.6-34.6c6.9-11.7,13.9-23.4,20.8-35c6.5-10.9,13-21.8,19.4-32.7
							c5.5-9.2,10.9-18.3,16.4-27.5c3.9-6.6,7.9-13.3,11.8-19.9c1.9-3.1,3.8-6.2,5.6-9.4c0.1-0.1,0.2-0.3,0.2-0.4
							C-913.3,408.4-918.1,405.6-919.9,408.7L-919.9,408.7z"/>
					</g>
				</g>
				<g>
					<line x1="-1203.6" y1="407.9" x2="-1060.6" y2="651"/>
					<g>
						<path d="M-1206,409.3c1.3,2.2,2.6,4.3,3.8,6.5c3.5,5.9,7,11.8,10.4,17.7c5.1,8.7,10.2,17.4,15.4,26.1
							c6.2,10.6,12.5,21.2,18.7,31.9c6.9,11.7,13.7,23.3,20.6,35c6.9,11.8,13.9,23.6,20.8,35.3c6.4,11,12.9,21.9,19.3,32.9
							c5.4,9.3,10.9,18.5,16.3,27.8c3.9,6.7,7.9,13.4,11.8,20.1c1.8,3.1,3.7,6.3,5.5,9.4c0.1,0.1,0.2,0.3,0.2,0.4
							c1.8,3.1,6.6,0.3,4.8-2.8c-1.3-2.2-2.6-4.3-3.8-6.5c-3.5-5.9-7-11.8-10.4-17.7c-5.1-8.7-10.2-17.4-15.4-26.1
							c-6.2-10.6-12.5-21.2-18.7-31.9c-6.9-11.7-13.7-23.3-20.6-35c-6.9-11.8-13.9-23.6-20.8-35.3c-6.4-11-12.9-21.9-19.3-32.9
							c-5.4-9.3-10.9-18.5-16.3-27.8c-3.9-6.7-7.9-13.4-11.8-20.1c-1.8-3.1-3.7-6.3-5.5-9.4c-0.1-0.1-0.2-0.3-0.2-0.4
							C-1203,403.4-1207.8,406.2-1206,409.3L-1206,409.3z"/>
					</g>
				</g>
			</g>
			<g>
				<line x1="-1060.1" y1="369.5" x2="-1060.6" y2="171"/>
				<line x1="-1060.1" y1="370.5" x2="-1060.6" y2="172"/>
				<g>
					<line x1="-1060.1" y1="373.3" x2="-1060.6" y2="171"/>
					<g>
						<path d="M-1057.4,373.3c0-1.8,0-3.6,0-5.4c0-4.9,0-9.8,0-14.7c0-7.3,0-14.5-0.1-21.8c0-8.9,0-17.7-0.1-26.6
							c0-9.7,0-19.4-0.1-29.1c0-9.8,0-19.6-0.1-29.4c0-9.1,0-18.3-0.1-27.4c0-7.7,0-15.4-0.1-23.1c0-5.5,0-11.1,0-16.6
							c0-2.6,0-5.3,0-7.9c0-0.1,0-0.2,0-0.3c0-3.5-5.5-3.5-5.5,0c0,1.8,0,3.6,0,5.4c0,4.9,0,9.8,0,14.7c0,7.3,0,14.5,0.1,21.8
							c0,8.9,0,17.7,0.1,26.6c0,9.7,0,19.4,0.1,29.1c0,9.8,0,19.6,0.1,29.4c0,9.1,0,18.3,0.1,27.4c0,7.7,0,15.4,0.1,23.1
							c0,5.5,0,11.1,0,16.6c0,2.6,0,5.3,0,7.9c0,0.1,0,0.2,0,0.3C-1062.9,376.9-1057.4,376.9-1057.4,373.3L-1057.4,373.3z"/>
					</g>
				</g>
				<g>
					<line x1="-1203.6" y1="407.9" x2="-1060.6" y2="171"/>
					<g>
						<path d="M-1201.2,409.3c1.3-2.1,2.6-4.2,3.8-6.4c3.5-5.7,6.9-11.5,10.4-17.2c5.1-8.5,10.3-17,15.4-25.6
							c6.3-10.4,12.5-20.7,18.8-31.1c6.8-11.3,13.7-22.7,20.5-34c6.9-11.5,13.8-22.9,20.7-34.4c6.4-10.7,12.9-21.4,19.3-32
							c5.4-9,10.9-18.1,16.3-27.1c3.9-6.5,7.9-13,11.8-19.5c1.9-3.1,3.8-6.1,5.6-9.2c0.1-0.1,0.2-0.3,0.2-0.4c1.8-3-2.9-5.8-4.7-2.8
							c-1.3,2.1-2.6,4.2-3.8,6.4c-3.5,5.7-6.9,11.5-10.4,17.2c-5.1,8.5-10.3,17-15.4,25.6c-6.3,10.4-12.5,20.7-18.8,31.1
							c-6.8,11.3-13.7,22.7-20.5,34c-6.9,11.5-13.8,22.9-20.7,34.4c-6.4,10.7-12.9,21.4-19.3,32c-5.4,9-10.9,18.1-16.3,27.1
							c-3.9,6.5-7.9,13-11.8,19.5c-1.9,3.1-3.8,6.1-5.6,9.2c-0.1,0.1-0.2,0.3-0.2,0.4C-1207.8,409.5-1203.1,412.3-1201.2,409.3
							L-1201.2,409.3z"/>
					</g>
				</g>
				<g>
					<line x1="-917.5" y1="410.1" x2="-1060.6" y2="171"/>
					<g>
						<path d="M-915.1,408.7c-1.3-2.1-2.6-4.3-3.8-6.4c-3.5-5.8-7-11.6-10.4-17.4c-5.1-8.6-10.3-17.1-15.4-25.7
							c-6.3-10.4-12.5-20.9-18.8-31.3c-6.9-11.4-13.7-22.9-20.6-34.3c-6.9-11.6-13.9-23.2-20.8-34.8c-6.5-10.8-12.9-21.6-19.4-32.4
							c-5.4-9.1-10.9-18.2-16.3-27.3c-3.9-6.5-7.8-13.1-11.8-19.6c-1.9-3.1-3.7-6.2-5.6-9.3c-0.1-0.1-0.2-0.3-0.2-0.4
							c-1.8-3-6.6-0.3-4.7,2.8c1.3,2.1,2.6,4.3,3.8,6.4c3.5,5.8,7,11.6,10.4,17.4c5.1,8.6,10.3,17.1,15.4,25.7
							c6.3,10.4,12.5,20.9,18.8,31.3c6.9,11.4,13.7,22.9,20.6,34.3c6.9,11.6,13.9,23.2,20.8,34.8c6.5,10.8,12.9,21.6,19.4,32.4
							c5.4,9.1,10.9,18.2,16.3,27.3c3.9,6.5,7.8,13.1,11.8,19.6c1.9,3.1,3.7,6.2,5.6,9.3c0.1,0.1,0.2,0.3,0.2,0.4
							C-918.1,414.5-913.3,411.7-915.1,408.7L-915.1,408.7z"/>
					</g>
				</g>
			</g>
			<polygon class="st0" points="-1060.4,445.7 -1177.1,406.6 -1060.4,378.7 -939.7,408.5 			"/>
		</g>
	</g>
</g>
<g id="Layer_5">
	<g>
		<g>
			<path class="st1" d="M-208.2,430.6c0,10.7-0.7,21.3-2.2,31.9c0.5-4,1.1-8,1.6-12c-2.9,20.5-8.3,40.5-16.4,59.6
				c1.5-3.6,3-7.2,4.5-10.7c-8,18.6-18.2,36.1-30.6,52.1c2.3-3,4.7-6.1,7-9.1c-12.1,15.5-26,29.4-41.5,41.5c3-2.3,6.1-4.7,9.1-7
				c-16,12.4-33.5,22.6-52.1,30.6c3.6-1.5,7.2-3,10.7-4.5c-19.1,8-39.1,13.5-59.6,16.4c4-0.5,8-1.1,12-1.6
				c-21.2,2.8-42.6,2.8-63.8,0c4,0.5,8,1.1,12,1.6c-20.5-2.9-40.5-8.3-59.6-16.4c3.6,1.5,7.2,3,10.7,4.5
				c-18.6-8-36.1-18.2-52.1-30.6c3,2.3,6.1,4.7,9.1,7c-15.5-12.1-29.4-26-41.5-41.5c2.3,3,4.7,6.1,7,9.1
				c-12.4-16-22.6-33.5-30.6-52.1c1.5,3.6,3,7.2,4.5,10.7c-8-19.1-13.5-39.1-16.4-59.6c0.5,4,1.1,8,1.6,12
				c-2.8-21.2-2.8-42.6,0-63.8c-0.5,4-1.1,8-1.6,12c2.9-20.5,8.3-40.5,16.4-59.6c-1.5,3.6-3,7.2-4.5,10.7
				c8-18.6,18.2-36.1,30.6-52.1c-2.3,3-4.7,6.1-7,9.1c12.1-15.5,26-29.4,41.5-41.5c-3,2.3-6.1,4.7-9.1,7
				c16-12.4,33.5-22.6,52.1-30.6c-3.6,1.5-7.2,3-10.7,4.5c19.1-8,39.1-13.5,59.6-16.4c-4,0.5-8,1.1-12,1.6c21.2-2.8,42.6-2.8,63.8,0
				c-4-0.5-8-1.1-12-1.6c20.5,2.9,40.5,8.3,59.6,16.4c-3.6-1.5-7.2-3-10.7-4.5c18.6,8,36.1,18.2,52.1,30.6c-3-2.3-6.1-4.7-9.1-7
				c15.5,12.1,29.4,26,41.5,41.5c-2.3-3-4.7-6.1-7-9.1c12.4,16,22.6,33.5,30.6,52.1c-1.5-3.6-3-7.2-4.5-10.7
				c8,19.1,13.5,39.1,16.4,59.6c-0.5-4-1.1-8-1.6-12C-208.9,409.3-208.2,419.9-208.2,430.6c0,11.6,5,23.6,13.2,31.8
				c7.8,7.8,20.6,13.7,31.8,13.2c11.6-0.5,23.7-4.3,31.8-13.2c8.1-8.8,13.2-19.6,13.2-31.8c-0.2-56-17.1-113.2-49.8-159
				c-8.8-12.3-18.3-24.3-28.8-35.3c-10.7-11.2-22.6-20.8-34.9-30.2c-22.1-16.9-46.8-29.3-72.8-38.9c-26.7-9.8-55.5-14.7-83.8-15.8
				c-28.4-1.1-57.6,2.5-84.9,10.2c-52.7,14.9-102.3,46-137.1,88.4c-9.8,11.9-19.1,24.3-27.1,37.5c-8,13.4-14.3,27.6-20.2,42
				c-10.8,26.1-16.1,54-18.4,82.1c-4.5,56.2,10,114.9,39.3,163c28.2,46.4,70.5,85.9,120.2,108.3c14.3,6.5,28.9,12.4,44,16.6
				c15.5,4.3,31.3,6.7,47.3,8.6c28.8,3.4,58.1,1.1,86.5-4.6c53.6-10.9,104.7-39.8,142.5-79.3c37.9-39.7,65.4-91.3,73.8-145.8
				c2.5-15.9,4.3-31.8,4.4-47.9c0-11.5-5-23.7-13.2-31.8c-7.8-7.8-20.6-13.7-31.8-13.2C-187.6,386.7-208.1,405.4-208.2,430.6z"/>
		</g>
	</g>
	<path id="SVGID_x5F_1_x5F_" class="st2" d="M-205.2,334.6c122.9,198.7,54.2,250.9-50.1,327.5s-250.9,54.2-327.5-50.1
		s-36.8-230.4,50.1-327.5C-446.4,188.1-273.2,224.5-205.2,334.6z"/>
	<text>	<textPath  xlink:href="#SVGID_x5F_1_x5F_" startOffset="99.5053%">
<tspan  class="st0" style="font-family:'ArcadeNormal'; font-size:60px; letter-spacing:200;">SUPER                </tspan>	</textPath>
</text>
	<path id="SVGID_x5F_2_x5F__1_" class="st2" d="M-197.3,325.6C-269.1,218-414.6,189-522.2,260.9S-631.5,464.3-587,585.8
		c34.4,93.8,225.8,133.4,324.9,64.8C-142.7,568-125.4,433.3-197.3,325.6z"/>
	<text>	<textPath  xlink:href="#SVGID_x5F_2_x5F__1_" startOffset="75.5613%">
<tspan  style="fill:#FDFEFE; font-family:'ArcadeNormal'; font-size:60px; letter-spacing:200;">USER</tspan>	</textPath>
</text>
</g>
<g id="Layer_6">
</g>
<g id="Layer_9">
	<path class="st3" d="M-573.1,276.1c0,0-54.5,49.1-57.7,147.1s62.3,179.4,94.7,195.8"/>
	<path class="st4" d="M-242.9,610.1c0,0,60.6-37.7,80.5-130.8s-28.8-182.3-56.9-203.6"/>
	<text transform="matrix(1 0 0 1 62.9651 -606.8823)"><tspan x="0" y="0" style="font-family:'ArcadeNormal'; font-size:60px; letter-spacing:12;">2nd</tspan><tspan x="0" y="72" style="font-family:'ArcadeNormal'; font-size:60px; letter-spacing:12;">wit</tspan><tspan x="0" y="144" style="font-family:'ArcadeNormal'; font-size:60px; letter-spacing:12;">white </tspan><tspan x="0" y="216" style="font-family:'ArcadeNormal'; font-size:60px; letter-spacing:12;">line</tspan><tspan x="0" y="288" style="font-family:'ArcadeNormal'; font-size:60px; letter-spacing:12;">for top</tspan><tspan x="0" y="360" style="font-family:'ArcadeNormal'; font-size:60px; letter-spacing:12;">of pyrm</tspan><tspan x="0" y="432" style="font-family:'ArcadeNormal'; font-size:60px; letter-spacing:12;">+eye</tspan><tspan x="0" y="504" style="font-family:'ArcadeNormal'; font-size:60px; letter-spacing:12;">+foont</tspan></text>
</g>
<g id="Layer_4">
	<g>
		<g>
			<g>
				<polygon class="st5" points="-397.2,459.6 -487,428 -306.1,430.5 				"/>
				<polygon class="st1" points="-397.8,401.1 -487.2,429.2 -304.9,430.5 				"/>
				<line x1="-397.1" y1="451.4" x2="-396.8" y2="562.5"/>
				<line x1="-397.1" y1="450.9" x2="-396.8" y2="561.9"/>
				<g>
					<line x1="-397.1" y1="451.4" x2="-396.8" y2="562.5"/>
					<g>
						<path class="st1" d="M-406.2,451.4c0,3.7,0,7.3,0,11c0,8.9,0,17.7,0.1,26.6c0,10.7,0.1,21.4,0.1,32c0,9.3,0.1,18.5,0.1,27.8
							c0,4.5-0.1,9,0,13.4c0,0.1,0,0.1,0,0.2c0,4.8,4.2,9.4,9.1,9.1c4.9-0.2,9.2-4,9.1-9.1c0-3.7,0-7.3,0-11c0-8.9,0-17.7-0.1-26.6
							c0-10.7-0.1-21.4-0.1-32c0-9.3-0.1-18.5-0.1-27.8c0-4.5,0.1-9,0-13.4c0-0.1,0-0.1,0-0.2c0-4.8-4.2-9.4-9.1-9.1
							C-402,442.5-406.2,446.3-406.2,451.4L-406.2,451.4z"/>
					</g>
				</g>
				<g>
					<line x1="-306.5" y1="430.1" x2="-397" y2="562.6"/>
					<g>
						<path class="st1" d="M-314.4,425.4c-3,4.4-6,8.8-9,13.2c-7.2,10.5-14.4,21.1-21.6,31.6c-8.7,12.8-17.4,25.5-26.1,38.3
							c-7.5,11-15.1,22.1-22.6,33.1c-3.7,5.4-7.4,10.6-11,16.1c0,0.1-0.1,0.1-0.2,0.2c-1.3,1.9-1.5,4.9-0.9,7
							c0.6,2.1,2.2,4.4,4.2,5.5c2.1,1.1,4.7,1.7,7,0.9c2.4-0.8,4.1-2.2,5.5-4.2c3-4.4,6-8.8,9-13.2c7.2-10.5,14.4-21.1,21.6-31.6
							c8.7-12.8,17.4-25.5,26.1-38.3c7.5-11,15.1-22.1,22.6-33.1c3.7-5.4,7.4-10.6,11-16.1c0-0.1,0.1-0.1,0.2-0.2
							c1.3-1.9,1.5-4.9,0.9-7c-0.6-2.1-2.2-4.4-4.2-5.5c-2.1-1.1-4.7-1.7-7-0.9C-311.3,422-313,423.4-314.4,425.4L-314.4,425.4z"/>
					</g>
				</g>
				<g>
					<line x1="-486.9" y1="428.9" x2="-396.8" y2="562.5"/>
					<g>
						<path class="st1" d="M-494.8,433.5c3,4.4,6,8.9,9,13.3c7.2,10.6,14.4,21.3,21.5,31.9c8.7,12.9,17.4,25.7,26,38.6
							c7.5,11.1,15,22.2,22.5,33.4c3.6,5.4,7.2,10.8,10.9,16.2c0.1,0.1,0.1,0.1,0.2,0.2c1.3,2,3.1,3.6,5.5,4.2
							c2.2,0.6,5.1,0.3,7-0.9c3.9-2.5,6.1-8.3,3.3-12.5c-3-4.4-6-8.9-9-13.3c-7.2-10.6-14.4-21.3-21.5-31.9
							c-8.7-12.9-17.4-25.7-26-38.6c-7.5-11.1-15-22.2-22.5-33.4c-3.6-5.4-7.2-10.8-10.9-16.2c-0.1-0.1-0.1-0.1-0.2-0.2
							c-1.3-2-3.1-3.6-5.5-4.2c-2.2-0.6-5.1-0.3-7,0.9C-495.5,423.5-497.7,429.2-494.8,433.5L-494.8,433.5z"/>
					</g>
				</g>
			</g>
			<g>
				<line x1="-396.4" y1="407.8" x2="-396.7" y2="298.7"/>
				<line x1="-396.4" y1="408.3" x2="-396.7" y2="299.2"/>
				<g>
					<line x1="-396.4" y1="409.9" x2="-396.7" y2="298.7"/>
					<g>
						<path class="st1" d="M-387.3,409.9c0-3.7,0-7.4,0-11.1c0-8.9,0-17.7-0.1-26.6c0-10.7-0.1-21.4-0.1-32c0-9.3-0.1-18.5-0.1-27.8
							c0-4.5,0.1-9,0-13.5c0-0.1,0-0.1,0-0.2c0-4.8-4.2-9.4-9.1-9.1c-4.9,0.2-9.2,4-9.1,9.1c0,3.7,0,7.4,0,11.1
							c0,8.9,0,17.7,0.1,26.6c0,10.7,0.1,21.4,0.1,32c0,9.3,0.1,18.5,0.1,27.8c0,4.5-0.1,9,0,13.5c0,0.1,0,0.1,0,0.2
							c0,4.8,4.2,9.4,9.1,9.1C-391.5,418.8-387.3,415-387.3,409.9L-387.3,409.9z"/>
					</g>
				</g>
				<g>
					<line x1="-486.9" y1="428.9" x2="-396.7" y2="298.7"/>
					<g>
						<path class="st1" d="M-479,433.5c3-4.3,6-8.7,9-13c7.2-10.4,14.4-20.8,21.6-31.2c8.7-12.5,17.3-25,26-37.5
							c7.5-10.9,15-21.7,22.6-32.6c3.6-5.2,7.4-10.4,10.9-15.7c0.1-0.1,0.1-0.1,0.2-0.2c1.3-1.9,1.5-4.9,0.9-7
							c-0.6-2.1-2.2-4.4-4.2-5.5c-2.1-1.1-4.7-1.7-7-0.9c-2.4,0.8-4,2.2-5.5,4.2c-3,4.3-6,8.7-9,13c-7.2,10.4-14.4,20.8-21.6,31.2
							c-8.7,12.5-17.3,25-26,37.5c-7.5,10.9-15,21.7-22.6,32.6c-3.6,5.2-7.4,10.4-10.9,15.7c-0.1,0.1-0.1,0.1-0.2,0.2
							c-1.3,1.9-1.5,4.9-0.9,7c0.6,2.1,2.2,4.4,4.2,5.5c2.1,1.1,4.7,1.7,7,0.9C-482.1,436.9-480.4,435.5-479,433.5L-479,433.5z"/>
					</g>
				</g>
				<g>
					<line x1="-306.5" y1="430.1" x2="-396.7" y2="298.7"/>
					<g>
						<path class="st1" d="M-298.6,425.4c-3-4.4-6-8.7-9-13.1c-7.2-10.5-14.4-20.9-21.6-31.4c-8.7-12.7-17.4-25.3-26.1-38
							c-7.5-10.9-15-21.8-22.4-32.7c-3.7-5.3-7.3-10.7-11-16c-0.1-0.1-0.1-0.1-0.2-0.2c-1.4-2-3.1-3.5-5.5-4.2
							c-2.2-0.6-5.1-0.3-7,0.9c-2,1.3-3.7,3.1-4.2,5.5c-0.5,2.3-0.5,5,0.9,7c3,4.4,6,8.7,9,13.1c7.2,10.5,14.4,20.9,21.6,31.4
							c8.7,12.7,17.4,25.3,26.1,38c7.5,10.9,15,21.8,22.4,32.7c3.7,5.3,7.3,10.7,11,16c0.1,0.1,0.1,0.1,0.2,0.2
							c1.4,2,3.1,3.5,5.5,4.2c2.2,0.6,5.1,0.3,7-0.9c2-1.3,3.7-3.1,4.2-5.5C-297.2,430.2-297.2,427.5-298.6,425.4L-298.6,425.4z"/>
					</g>
				</g>
			</g>
		</g>
	</g>
</g>
<g id="Layer_8">
</g>
<g id="Layer_7">
	<path class="st6" d="M-425.8,428.8c8-9.1,16-12.5,28-12.8c5.3,0,10.9,1.4,15.9,3.5c5.5,2.3,10.3,5.5,13.4,8.7
		c-9.9,10.6-17.7,15.5-29.5,15.8C-406,443.3-416.4,440.1-425.8,428.8z"/>
	<path class="st7" d="M-397.1,432.9c0,0-13.9,0.3-15.1-14.3c0,0,14.7-5.8,29.2,0.4l0.1,2.8C-382.9,421.8-384.5,432.4-397.1,432.9z"
		/>
	<polyline class="st8" points="-526.4,418 -397.4,467.5 -275.9,424.5 	"/>
	<polyline class="st9" points="-526.4,414 -397.4,462.5 -275.9,420.5 	"/>
</g>
<g id="_x32_nd_ly">
	<g>
		<g>
			<path class="st1" d="M471.5,406.9c0,10.7-0.7,21.3-2.2,31.9c0.5-4,1.1-8,1.6-12c-2.9,20.5-8.3,40.5-16.4,59.6
				c1.5-3.6,3-7.2,4.5-10.7c-8,18.6-18.2,36.1-30.6,52.1c2.3-3,4.7-6.1,7-9.1c-12.1,15.5-26,29.4-41.5,41.5c3-2.3,6.1-4.7,9.1-7
				c-16,12.4-33.5,22.6-52.1,30.6c3.6-1.5,7.2-3,10.7-4.5c-19.1,8-39.1,13.5-59.6,16.4c4-0.5,8-1.1,12-1.6
				c-21.2,2.8-42.6,2.8-63.8,0c4,0.5,8,1.1,12,1.6c-20.5-2.9-40.5-8.3-59.6-16.4c3.6,1.5,7.2,3,10.7,4.5
				c-18.6-8-36.1-18.2-52.1-30.6c3,2.3,6.1,4.7,9.1,7c-15.5-12.1-29.4-26-41.5-41.5c2.3,3,4.7,6.1,7,9.1
				c-12.4-16-22.6-33.5-30.6-52.1c1.5,3.6,3,7.2,4.5,10.7c-8-19.1-13.5-39.1-16.4-59.6c0.5,4,1.1,8,1.6,12
				c-2.8-21.2-2.8-42.6,0-63.8c-0.5,4-1.1,8-1.6,12c2.9-20.5,8.3-40.5,16.4-59.6c-1.5,3.6-3,7.2-4.5,10.7
				c8-18.6,18.2-36.1,30.6-52.1c-2.3,3-4.7,6.1-7,9.1c12.1-15.5,26-29.4,41.5-41.5c-3,2.3-6.1,4.7-9.1,7
				c16-12.4,33.5-22.6,52.1-30.6c-3.6,1.5-7.2,3-10.7,4.5c19.1-8,39.1-13.5,59.6-16.4c-4,0.5-8,1.1-12,1.6c21.2-2.8,42.6-2.8,63.8,0
				c-4-0.5-8-1.1-12-1.6c20.5,2.9,40.5,8.3,59.6,16.4c-3.6-1.5-7.2-3-10.7-4.5c18.6,8,36.1,18.2,52.1,30.6c-3-2.3-6.1-4.7-9.1-7
				c15.5,12.1,29.4,26,41.5,41.5c-2.3-3-4.7-6.1-7-9.1c12.4,16,22.6,33.5,30.6,52.1c-1.5-3.6-3-7.2-4.5-10.7
				c8,19.1,13.5,39.1,16.4,59.6c-0.5-4-1.1-8-1.6-12C470.8,385.6,471.5,396.2,471.5,406.9c0,11.6,5,23.6,13.2,31.8
				c7.8,7.8,20.6,13.7,31.8,13.2c11.6-0.5,23.7-4.3,31.8-13.2c8.1-8.8,13.2-19.6,13.2-31.8c-0.2-56-17.1-113.2-49.8-159
				c-8.8-12.3-18.3-24.3-28.8-35.3c-10.7-11.2-22.6-20.8-34.9-30.2c-22.1-16.9-46.8-29.3-72.8-38.9c-26.7-9.8-55.5-14.7-83.8-15.8
				c-28.4-1.1-57.6,2.5-84.9,10.2c-52.7,14.9-102.3,46-137.1,88.4c-9.8,11.9-19.1,24.3-27.1,37.5c-8,13.4-14.3,27.6-20.2,42
				C11.3,332,6,359.9,3.7,388c-4.5,56.2,10,114.9,39.3,163c28.2,46.4,70.5,85.9,120.2,108.3c14.3,6.5,28.9,12.4,44,16.6
				c15.5,4.3,31.3,6.7,47.3,8.6c28.8,3.4,58.1,1.1,86.5-4.6c53.6-10.9,104.7-39.8,142.5-79.3c37.9-39.7,65.4-91.3,73.8-145.8
				c2.5-15.9,4.3-31.8,4.4-47.9c0-11.5-5-23.7-13.2-31.8c-7.8-7.8-20.6-13.7-31.8-13.2C492.1,363,471.6,381.7,471.5,406.9z"/>
		</g>
	</g>
	<path id="SVGID_x5F_3_x5F__1_" class="st2" d="M474.5,310.8c122.9,198.7,54.2,250.9-50.1,327.5s-250.9,54.2-327.5-50.1
		S60.1,357.8,147,260.7C233.3,164.3,406.5,200.8,474.5,310.8z"/>
	<text>	<textPath  xlink:href="#SVGID_x5F_3_x5F__1_" startOffset="99.5053%">
<tspan  class="st0" style="font-family:'ArcadeNormal'; font-size:60px; letter-spacing:200;">SUPER                </tspan>	</textPath>
</text>
	<path id="SVGID_x5F_4_x5F_" class="st2" d="M482.4,301.9c-71.8-107.6-217.3-136.6-324.9-64.8S48.2,440.6,92.7,562.1
		c34.4,93.8,225.8,133.4,324.9,64.8C537,544.2,554.2,409.5,482.4,301.9z"/>
	<text>	<textPath  xlink:href="#SVGID_x5F_4_x5F_" startOffset="75.5613%">
<tspan  style="fill:#FDFEFE; font-family:'ArcadeNormal'; font-size:60px; letter-spacing:200;">USER</tspan>	</textPath>
</text>
	<path class="st3" d="M106.6,252.3c0,0-54.5,49.1-57.7,147.1s62.3,179.4,94.7,195.8"/>
	<path class="st4" d="M436.8,586.4c0,0,60.6-37.7,80.5-130.8c19.9-93.1-28.8-182.3-56.9-203.6"/>
	<g>
		<g>
			<g>
				<polygon class="st5" points="282.5,435.8 192.7,404.3 373.6,406.8 				"/>
				<polygon class="st1" points="281.9,377.4 192.5,405.4 374.8,406.8 				"/>
				<line x1="282.6" y1="427.7" x2="282.9" y2="538.7"/>
				<line x1="282.6" y1="427.1" x2="282.9" y2="538.2"/>
				<g>
					<line x1="282.6" y1="427.7" x2="282.9" y2="538.7"/>
					<g>
						<path class="st1" d="M273.5,427.7c0,3.7,0,7.3,0,11c0,8.9,0,17.7,0.1,26.6c0,10.7,0.1,21.4,0.1,32c0,9.3,0.1,18.5,0.1,27.8
							c0,4.5-0.1,9,0,13.4c0,0.1,0,0.1,0,0.2c0,4.8,4.2,9.4,9.1,9.1c4.9-0.2,9.2-4,9.1-9.1c0-3.7,0-7.3,0-11c0-8.9,0-17.7-0.1-26.6
							c0-10.7-0.1-21.4-0.1-32c0-9.3-0.1-18.5-0.1-27.8c0-4.5,0.1-9,0-13.4c0-0.1,0-0.1,0-0.2c0-4.8-4.2-9.4-9.1-9.1
							C277.7,418.8,273.5,422.6,273.5,427.7L273.5,427.7z"/>
					</g>
				</g>
				<g>
					<line x1="373.2" y1="406.3" x2="282.7" y2="538.8"/>
					<g>
						<path class="st1" d="M365.3,401.7c-3,4.4-6,8.8-9,13.2c-7.2,10.5-14.4,21.1-21.6,31.6c-8.7,12.8-17.4,25.5-26.1,38.3
							c-7.5,11-15.1,22.1-22.6,33.1c-3.7,5.4-7.4,10.6-11,16.1c0,0.1-0.1,0.1-0.2,0.2c-1.3,1.9-1.5,4.9-0.9,7
							c0.6,2.1,2.2,4.4,4.2,5.5c2.1,1.1,4.7,1.7,7,0.9c2.4-0.8,4.1-2.2,5.5-4.2c3-4.4,6-8.8,9-13.2c7.2-10.5,14.4-21.1,21.6-31.6
							c8.7-12.8,17.4-25.5,26.1-38.3c7.5-11,15.1-22.1,22.6-33.1c3.7-5.4,7.4-10.6,11-16.1c0-0.1,0.1-0.1,0.2-0.2
							c1.3-1.9,1.5-4.9,0.9-7c-0.6-2.1-2.2-4.4-4.2-5.5c-2.1-1.1-4.7-1.7-7-0.9C368.4,398.3,366.7,399.6,365.3,401.7L365.3,401.7z"
							/>
					</g>
				</g>
				<g>
					<line x1="192.8" y1="405.1" x2="282.9" y2="538.7"/>
					<g>
						<path class="st1" d="M184.9,409.7c3,4.4,6,8.9,9,13.3c7.2,10.6,14.4,21.3,21.5,31.9c8.7,12.9,17.4,25.7,26,38.6
							c7.5,11.1,15,22.2,22.5,33.4c3.6,5.4,7.2,10.8,10.9,16.2c0.1,0.1,0.1,0.1,0.2,0.2c1.3,2,3.1,3.6,5.5,4.2
							c2.2,0.6,5.1,0.3,7-0.9c3.9-2.5,6.1-8.3,3.3-12.5c-3-4.4-6-8.9-9-13.3c-7.2-10.6-14.4-21.3-21.5-31.9
							c-8.7-12.9-17.4-25.7-26-38.6c-7.5-11.1-15-22.2-22.5-33.4c-3.6-5.4-7.2-10.8-10.9-16.2c-0.1-0.1-0.1-0.1-0.2-0.2
							c-1.3-2-3.1-3.6-5.5-4.2c-2.2-0.6-5.1-0.3-7,0.9C184.2,399.8,182,405.5,184.9,409.7L184.9,409.7z"/>
					</g>
				</g>
			</g>
			<g>
				<line x1="283.2" y1="384" x2="282.9" y2="274.9"/>
				<line x1="283.2" y1="384.6" x2="282.9" y2="275.5"/>
				<g>
					<line x1="283.2" y1="386.1" x2="282.9" y2="274.9"/>
					<g>
						<path class="st1" d="M292.4,386.1c0-3.7,0-7.4,0-11.1c0-8.9,0-17.7-0.1-26.6c0-10.7-0.1-21.4-0.1-32c0-9.3-0.1-18.5-0.1-27.8
							c0-4.5,0.1-9,0-13.5c0-0.1,0-0.1,0-0.2c0-4.8-4.2-9.4-9.1-9.1c-4.9,0.2-9.2,4-9.1,9.1c0,3.7,0,7.4,0,11.1
							c0,8.9,0,17.7,0.1,26.6c0,10.7,0.1,21.4,0.1,32c0,9.3,0.1,18.5,0.1,27.8c0,4.5-0.1,9,0,13.5c0,0.1,0,0.1,0,0.2
							c0,4.8,4.2,9.4,9.1,9.1C288.2,395.1,292.4,391.3,292.4,386.1L292.4,386.1z"/>
					</g>
				</g>
				<g>
					<line x1="192.8" y1="405.1" x2="282.9" y2="274.9"/>
					<g>
						<path class="st1" d="M200.7,409.7c3-4.3,6-8.7,9-13c7.2-10.4,14.4-20.8,21.6-31.2c8.7-12.5,17.3-25,26-37.5
							c7.5-10.9,15-21.7,22.6-32.6c3.6-5.2,7.4-10.4,10.9-15.7c0.1-0.1,0.1-0.1,0.2-0.2c1.3-1.9,1.5-4.9,0.9-7
							c-0.6-2.1-2.2-4.4-4.2-5.5c-2.1-1.1-4.7-1.7-7-0.9c-2.4,0.8-4,2.2-5.5,4.2c-3,4.3-6,8.7-9,13c-7.2,10.4-14.4,20.8-21.6,31.2
							c-8.7,12.5-17.3,25-26,37.5c-7.5,10.9-15,21.7-22.6,32.6c-3.6,5.2-7.4,10.4-10.9,15.7c-0.1,0.1-0.1,0.1-0.2,0.2
							c-1.3,1.9-1.5,4.9-0.9,7c0.6,2.1,2.2,4.4,4.2,5.5c2.1,1.1,4.7,1.7,7,0.9C197.6,413.2,199.3,411.8,200.7,409.7L200.7,409.7z"/>
					</g>
				</g>
				<g>
					<line x1="373.2" y1="406.3" x2="282.9" y2="274.9"/>
					<g>
						<path class="st1" d="M381.1,401.7c-3-4.4-6-8.7-9-13.1c-7.2-10.5-14.4-20.9-21.6-31.4c-8.7-12.7-17.4-25.3-26.1-38
							c-7.5-10.9-15-21.8-22.4-32.7c-3.7-5.3-7.3-10.7-11-16c-0.1-0.1-0.1-0.1-0.2-0.2c-1.4-2-3.1-3.5-5.5-4.2
							c-2.2-0.6-5.1-0.3-7,0.9c-2,1.3-3.7,3.1-4.2,5.5c-0.5,2.3-0.5,5,0.9,7c3,4.4,6,8.7,9,13.1c7.2,10.5,14.4,20.9,21.6,31.4
							c8.7,12.7,17.4,25.3,26.1,38c7.5,10.9,15,21.8,22.4,32.7c3.7,5.3,7.3,10.7,11,16c0.1,0.1,0.1,0.1,0.2,0.2
							c1.4,2,3.1,3.5,5.5,4.2c2.2,0.6,5.1,0.3,7-0.9c2-1.3,3.7-3.1,4.2-5.5C382.5,406.4,382.5,403.7,381.1,401.7L381.1,401.7z"/>
					</g>
				</g>
			</g>
		</g>
	</g>
	<g>
		<path class="st10" d="M240.1,405.9c14.6-6.9,29.2-10.8,43.9-10.9c15.4,0,28.6,4.3,40.6,10.9c-12.7,7-25.9,10.9-39.7,11.6
			C267.9,417.1,253.2,412.9,240.1,405.9z"/>
		<ellipse class="st0" cx="283.2" cy="405.9" rx="8.9" ry="8.1"/>
	</g>
</g>
</svg>
