<?xml version="1.0" encoding="utf-8"?>
<!-- Generator: Adobe Illustrator 23.1.0, SVG Export Plug-In . SVG Version: 6.00 Build 0)  -->
<svg version="1.1" xmlns="http://www.w3.org/2000/svg" xmlns:xlink="http://www.w3.org/1999/xlink" x="0px" y="0px"
	 viewBox="0 0 579.4 841.9" style="enable-background:new 0 0 579.4 841.9;" xml:space="preserve">
<style type="text/css">
	.st0{fill:#FFFFFF;}
	.st1{fill:#304BA0;}
	.st2{fill:none;}
	.st3{fill:none;stroke:#FFFFFF;stroke-width:10;stroke-miterlimit:10;}
	.st4{fill:none;stroke:#FFFFFF;stroke-width:9.72;stroke-miterlimit:10;}
	.st5{fill:#304BA0;stroke:#304BA0;stroke-miterlimit:10;}
	.st6{fill:none;stroke:#FFFFFF;stroke-width:5.1431;stroke-miterlimit:10;}
	.st7{fill:#FFFFFF;stroke:#FFFFFF;stroke-width:1.2858;stroke-miterlimit:10;}
	.st8{fill:none;stroke:#FFFFFF;stroke-width:5;stroke-miterlimit:10;}
	.st9{fill:none;stroke:#FFFFFF;stroke-width:4;stroke-miterlimit:10;}
	.st10{fill:none;stroke:#FFFFFF;stroke-width:2.4291;stroke-miterlimit:10;}
</style>
<g id="Layer_2">
</g>
<g id="Layer_3">
</g>
<g id="Layer_5">
	<g>
		<g>
			<path class="st1" d="M479.6,430.6c0,10.7-0.7,21.3-2.2,31.9c0.5-4,1.1-8,1.6-12c-2.9,20.5-8.3,40.5-16.4,59.6
				c1.5-3.6,3-7.2,4.5-10.7c-8,18.6-18.2,36.1-30.6,52.1c2.3-3,4.7-6.1,7-9.1c-12.1,15.5-26,29.4-41.5,41.5c3-2.3,6.1-4.7,9.1-7
				c-16,12.4-33.5,22.6-52.1,30.6c3.6-1.5,7.2-3,10.7-4.5c-19.1,8-39.1,13.5-59.6,16.4c4-0.5,8-1.1,12-1.6
				c-21.2,2.8-42.6,2.8-63.8,0c4,0.5,8,1.1,12,1.6c-20.5-2.9-40.5-8.3-59.6-16.4c3.6,1.5,7.2,3,10.7,4.5
				c-18.6-8-36.1-18.2-52.1-30.6c3,2.3,6.1,4.7,9.1,7c-15.5-12.1-29.4-26-41.5-41.5c2.3,3,4.7,6.1,7,9.1
				c-12.4-16-22.6-33.5-30.6-52.1c1.5,3.6,3,7.2,4.5,10.7c-8-19.1-13.5-39.1-16.4-59.6c0.5,4,1.1,8,1.6,12
				c-2.8-21.2-2.8-42.6,0-63.8c-0.5,4-1.1,8-1.6,12c2.9-20.5,8.3-40.5,16.4-59.6c-1.5,3.6-3,7.2-4.5,10.7
				c8-18.6,18.2-36.1,30.6-52.1c-2.3,3-4.7,6.1-7,9.1c12.1-15.5,26-29.4,41.5-41.5c-3,2.3-6.1,4.7-9.1,7
				c16-12.4,33.5-22.6,52.1-30.6c-3.6,1.5-7.2,3-10.7,4.5c19.1-8,39.1-13.5,59.6-16.4c-4,0.5-8,1.1-12,1.6c21.2-2.8,42.6-2.8,63.8,0
				c-4-0.5-8-1.1-12-1.6c20.5,2.9,40.5,8.3,59.6,16.4c-3.6-1.5-7.2-3-10.7-4.5c18.6,8,36.1,18.2,52.1,30.6c-3-2.3-6.1-4.7-9.1-7
				c15.5,12.1,29.4,26,41.5,41.5c-2.3-3-4.7-6.1-7-9.1c12.4,16,22.6,33.5,30.6,52.1c-1.5-3.6-3-7.2-4.5-10.7
				c8,19.1,13.5,39.1,16.4,59.6c-0.5-4-1.1-8-1.6-12C478.9,409.3,479.6,419.9,479.6,430.6c0,11.6,5,23.6,13.2,31.8
				c7.8,7.8,20.6,13.7,31.8,13.2c11.6-0.5,23.7-4.3,31.8-13.2c8.1-8.8,13.2-19.6,13.2-31.8c-0.2-56-17.1-113.2-49.8-159
				c-8.8-12.3-18.3-24.3-28.8-35.3c-10.7-11.2-22.6-20.8-34.9-30.2c-22.1-16.9-46.8-29.3-72.8-38.9c-26.7-9.8-55.5-14.7-83.8-15.8
				c-28.4-1.1-57.6,2.5-84.9,10.2c-52.7,14.9-102.3,46-137.1,88.4c-9.8,11.9-19.1,24.3-27.1,37.5c-8,13.4-14.3,27.6-20.2,42
				c-10.8,26.1-16.1,54-18.4,82.1c-4.5,56.2,10,114.9,39.3,163c28.2,46.4,70.5,85.9,120.2,108.3c14.3,6.5,28.9,12.4,44,16.6
				c15.5,4.3,31.3,6.7,47.3,8.6c28.8,3.4,58.1,1.1,86.5-4.6c53.6-10.9,104.7-39.8,142.5-79.3c37.9-39.7,65.4-91.3,73.8-145.8
				c2.5-15.9,4.3-31.8,4.4-47.9c0-11.5-5-23.7-13.2-31.8c-7.8-7.8-20.6-13.7-31.8-13.2C500.2,386.7,479.7,405.4,479.6,430.6z"/>
		</g>
	</g>
	<path id="SVGID_x5F_1_x5F_" class="st2" d="M482.6,334.6c122.9,198.7,54.2,250.9-50.1,327.5S181.6,716.3,105,612
		s-36.8-230.4,50.1-327.5C241.4,188.1,414.6,224.5,482.6,334.6z"/>
	<text>	<textPath  xlink:href="#SVGID_x5F_1_x5F_" startOffset="99.5053%">
<tspan  class="st0" style="font-family:'ArcadeNormal'; font-size:60px; letter-spacing:200;">SUPER                </tspan>	</textPath>
</text>
	<path id="SVGID_x5F_2_x5F_" class="st2" d="M490.5,325.6C418.7,218,273.2,189,165.6,260.9S56.3,464.3,100.8,585.8
		c34.4,93.8,225.8,133.4,324.9,64.8C545.1,568,562.4,433.3,490.5,325.6z"/>
	<text>	<textPath  xlink:href="#SVGID_x5F_2_x5F_" startOffset="75.5613%">
<tspan  style="fill:#FDFEFE; font-family:'ArcadeNormal'; font-size:60px; letter-spacing:200;">USER</tspan>	</textPath>
</text>
</g>
<g id="Layer_6">
</g>
<g id="Layer_9">
	<path class="st3" d="M114.8,276.1c0,0-54.5,49.1-57.7,147.1c-3.2,97.9,62.3,179.4,94.7,195.8"/>
	<path class="st4" d="M445,610.1c0,0,60.6-37.7,80.5-130.8S496.7,297,468.6,275.7"/>
</g>
<g id="Layer_4">
	<g>
		<g>
			<g>
				<polygon class="st5" points="290.6,459.6 200.8,428 381.7,430.5 				"/>
				<polygon class="st1" points="290,401.1 200.6,429.2 383,430.5 				"/>
				<line x1="290.7" y1="451.4" x2="291.1" y2="562.5"/>
				<line x1="290.7" y1="450.9" x2="291.1" y2="561.9"/>
				<g>
					<line x1="290.7" y1="451.4" x2="291.1" y2="562.5"/>
					<g>
						<path class="st1" d="M281.6,451.4c0,3.7,0,7.3,0,11c0,8.9,0,17.7,0.1,26.6c0,10.7,0.1,21.4,0.1,32c0,9.3,0.1,18.5,0.1,27.8
							c0,4.5-0.1,9,0,13.4c0,0.1,0,0.1,0,0.2c0,4.8,4.2,9.4,9.1,9.1c4.9-0.2,9.2-4,9.1-9.1c0-3.7,0-7.3,0-11c0-8.9,0-17.7-0.1-26.6
							c0-10.7-0.1-21.4-0.1-32c0-9.3-0.1-18.5-0.1-27.8c0-4.5,0.1-9,0-13.4c0-0.1,0-0.1,0-0.2c0-4.8-4.2-9.4-9.1-9.1
							C285.8,442.5,281.6,446.3,281.6,451.4L281.6,451.4z"/>
					</g>
				</g>
				<g>
					<line x1="381.3" y1="430.1" x2="290.8" y2="562.6"/>
					<g>
						<path class="st1" d="M373.4,425.4c-3,4.4-6,8.8-9,13.2c-7.2,10.5-14.4,21.1-21.6,31.6c-8.7,12.8-17.4,25.5-26.1,38.3
							c-7.5,11-15.1,22.1-22.6,33.1c-3.7,5.4-7.4,10.6-11,16.1c0,0.1-0.1,0.1-0.2,0.2c-1.3,1.9-1.5,4.9-0.9,7
							c0.6,2.1,2.2,4.4,4.2,5.5c2.1,1.1,4.7,1.7,7,0.9c2.4-0.8,4.1-2.2,5.5-4.2c3-4.4,6-8.8,9-13.2c7.2-10.5,14.4-21.1,21.6-31.6
							c8.7-12.8,17.4-25.5,26.1-38.3c7.5-11,15.1-22.1,22.6-33.1c3.7-5.4,7.4-10.6,11-16.1c0-0.1,0.1-0.1,0.2-0.2
							c1.3-1.9,1.5-4.9,0.9-7c-0.6-2.1-2.2-4.4-4.2-5.5c-2.1-1.1-4.7-1.7-7-0.9C376.5,422,374.8,423.4,373.4,425.4L373.4,425.4z"/>
					</g>
				</g>
				<g>
					<line x1="200.9" y1="428.9" x2="291.1" y2="562.5"/>
					<g>
						<path class="st1" d="M193,433.5c3,4.4,6,8.9,9,13.3c7.2,10.6,14.4,21.3,21.5,31.9c8.7,12.9,17.4,25.7,26,38.6
							c7.5,11.1,15,22.2,22.5,33.4c3.6,5.4,7.2,10.8,10.9,16.2c0.1,0.1,0.1,0.1,0.2,0.2c1.3,2,3.1,3.6,5.5,4.2
							c2.2,0.6,5.1,0.3,7-0.9c3.9-2.5,6.1-8.3,3.3-12.5c-3-4.4-6-8.9-9-13.3c-7.2-10.6-14.4-21.3-21.5-31.9
							c-8.7-12.9-17.4-25.7-26-38.6c-7.5-11.1-15-22.2-22.5-33.4c-3.6-5.4-7.2-10.8-10.9-16.2c-0.1-0.1-0.1-0.1-0.2-0.2
							c-1.3-2-3.1-3.6-5.5-4.2c-2.2-0.6-5.1-0.3-7,0.9C192.4,423.5,190.2,429.2,193,433.5L193,433.5z"/>
					</g>
				</g>
			</g>
			<g>
				<line x1="291.4" y1="407.8" x2="291.1" y2="298.7"/>
				<line x1="291.4" y1="408.3" x2="291.1" y2="299.2"/>
				<g>
					<line x1="291.4" y1="409.9" x2="291.1" y2="298.7"/>
					<g>
						<path class="st1" d="M300.5,409.9c0-3.7,0-7.4,0-11.1c0-8.9,0-17.7-0.1-26.6c0-10.7-0.1-21.4-0.1-32c0-9.3-0.1-18.5-0.1-27.8
							c0-4.5,0.1-9,0-13.5c0-0.1,0-0.1,0-0.2c0-4.8-4.2-9.4-9.1-9.1c-4.9,0.2-9.2,4-9.1,9.1c0,3.7,0,7.4,0,11.1
							c0,8.9,0,17.7,0.1,26.6c0,10.7,0.1,21.4,0.1,32c0,9.3,0.1,18.5,0.1,27.8c0,4.5-0.1,9,0,13.5c0,0.1,0,0.1,0,0.2
							c0,4.8,4.2,9.4,9.1,9.1C296.3,418.8,300.5,415,300.5,409.9L300.5,409.9z"/>
					</g>
				</g>
				<g>
					<line x1="200.9" y1="428.9" x2="291.1" y2="298.7"/>
					<g>
						<path class="st1" d="M208.8,433.5c3-4.3,6-8.7,9-13c7.2-10.4,14.4-20.8,21.6-31.2c8.7-12.5,17.3-25,26-37.5
							c7.5-10.9,15-21.7,22.6-32.6c3.6-5.2,7.4-10.4,10.9-15.7c0.1-0.1,0.1-0.1,0.2-0.2c1.3-1.9,1.5-4.9,0.9-7
							c-0.6-2.1-2.2-4.4-4.2-5.5c-2.1-1.1-4.7-1.7-7-0.9c-2.4,0.8-4,2.2-5.5,4.2c-3,4.3-6,8.7-9,13c-7.2,10.4-14.4,20.8-21.6,31.2
							c-8.7,12.5-17.3,25-26,37.5c-7.5,10.9-15,21.7-22.6,32.6c-3.6,5.2-7.4,10.4-10.9,15.7c-0.1,0.1-0.1,0.1-0.2,0.2
							c-1.3,1.9-1.5,4.9-0.9,7c0.6,2.1,2.2,4.4,4.2,5.5c2.1,1.1,4.7,1.7,7,0.9C205.7,436.9,207.4,435.5,208.8,433.5L208.8,433.5z"/>
					</g>
				</g>
				<g>
					<line x1="381.3" y1="430.1" x2="291.1" y2="298.7"/>
					<g>
						<path class="st1" d="M389.2,425.4c-3-4.4-6-8.7-9-13.1c-7.2-10.5-14.4-20.9-21.6-31.4c-8.7-12.7-17.4-25.3-26.1-38
							c-7.5-10.9-15-21.8-22.4-32.7c-3.7-5.3-7.3-10.7-11-16c-0.1-0.1-0.1-0.1-0.2-0.2c-1.4-2-3.1-3.5-5.5-4.2
							c-2.2-0.6-5.1-0.3-7,0.9c-2,1.3-3.7,3.1-4.2,5.5c-0.5,2.3-0.5,5,0.9,7c3,4.4,6,8.7,9,13.1c7.2,10.5,14.4,20.9,21.6,31.4
							c8.7,12.7,17.4,25.3,26.1,38c7.5,10.9,15,21.8,22.4,32.7c3.7,5.3,7.3,10.7,11,16c0.1,0.1,0.1,0.1,0.2,0.2
							c1.4,2,3.1,3.5,5.5,4.2c2.2,0.6,5.1,0.3,7-0.9c2-1.3,3.7-3.1,4.2-5.5C390.6,430.2,390.6,427.5,389.2,425.4L389.2,425.4z"/>
					</g>
				</g>
			</g>
		</g>
	</g>
</g>
<g id="Layer_8">
</g>
<g id="Layer_7">
	<path class="st6" d="M262,428.8c8-9.1,16-12.5,28-12.8c5.3,0,10.9,1.4,15.9,3.5c5.5,2.3,10.3,5.5,13.4,8.7
		c-9.9,10.6-17.7,15.5-29.5,15.8C281.8,443.3,271.4,440.1,262,428.8z"/>
	<path class="st7" d="M290.7,432.9c0,0-13.9,0.3-15.1-14.3c0,0,14.7-5.8,29.2,0.4l0.1,2.8C304.9,421.8,303.3,432.4,290.7,432.9z"/>
	<polyline class="st8" points="161.4,418 290.4,467.5 411.9,424.5 	"/>
	<polyline class="st9" points="161.4,414 290.4,462.5 411.9,420.5 	"/>
</g>
<g id="_x32_nd_ly">
	<path id="SVGID_x5F_3_x5F_" class="st2" d="M1162.3,310.8c122.9,198.7,54.2,250.9-50.1,327.5s-250.9,54.2-327.5-50.1
		s-36.8-230.4,50.1-327.5C921.1,164.3,1094.3,200.8,1162.3,310.8z"/>
	<text>	<textPath  xlink:href="#SVGID_x5F_3_x5F_" startOffset="99.5053%">
<tspan  class="st0" style="font-family:'ArcadeNormal'; font-size:60px; letter-spacing:200;">SUPER                </tspan>	</textPath>
</text>
</g>
</svg>
